<svg width="80" height="80" viewBox="0 0 48 48" fill="none" xmlns="http://www.w3.org/2000/svg">
  <path fill-rule="evenodd" clip-rule="evenodd" d="M24 4.8c5.8 0 6.5.024 8.8.127 2.292.105 3.542.471 4.371.78a7.635 7.635 0 0 1 2.827 1.842 7.635 7.635 0 0 1 1.842 2.827c.309.829.675 2.079.78 4.371.103 2.3.127 3 .127 8.8s-.024 6.5-.127 8.8c-.105 2.292-.471 3.542-.78 4.371a7.635 7.635 0 0 1-1.842 2.827 7.635 7.635 0 0 1-2.827 1.842c-.829.309-2.079.675-4.371.78-2.3.103-3 .127-8.8.127s-6.5-.024-8.8-.127c-2.292-.105-3.542-.471-4.371-.78a7.635 7.635 0 0 1-2.827-1.842 7.635 7.635 0 0 1-1.842-2.827c-.309-.829-.675-2.079-.78-4.371C4.824 30.5 4.8 29.8 4.8 24s.024-6.5.127-8.8c.105-2.292.471-3.542.78-4.371a7.635 7.635 0 0 1 1.842-2.827A7.635 7.635 0 0 1 10.176 6.708c.829-.309 2.079-.675 4.371-.78C17.5 5.024 18.2 5 24 5s6.5.024 8.8.127c2.292.105 3.542.471 4.371.78a7.635 7.635 0 0 1 2.827 1.842 7.635 7.635 0 0 1 1.842 2.827c.309.829.675 2.079.78 4.371.103 2.3.127 3 .127 8.8s-.024 6.5-.127 8.8c-.105 2.292-.471 3.542-.78 4.371a7.635 7.635 0 0 1-1.842 2.827 7.635 7.635 0 0 1-2.827 1.842c-.829.309-2.079.675-4.371.78-2.3.103-3 .127-8.8.127s-6.5-.024-8.8-.127c-2.292-.105-3.542-.471-4.371-.78a7.635 7.635 0 0 1-2.827-1.842 7.635 7.635 0 0 1-1.842-2.827c-.309-.829-.675-2.079-.78-4.371C5.024 30.5 5 29.8 5 24s.024-6.5.127-8.8c.105-2.292.471-3.542.78-4.371a7.635 7.635 0 0 1 1.842-2.827 7.635 7.635 0 0 1 2.827-1.842c.829-.309 2.079-.675 4.371-.78C17.5 5.024 18.2 5 24 5s6.5.024 8.8.127c2.292.105 3.542.471 4.371.78a7.635 7.635 0 0 1 2.827 1.842 7.635 7.635 0 0 1 1.842 2.827c.309.829.675 2.079.78 4.371.103 2.3.127 3 .127 8.8s-.024 6.5-.127 8.8c-.105 2.292-.471 3.542-.78 4.371a7.635 7.635 0 0 1-1.842 2.827 7.635 7.635 0 0 1-2.827 1.842c-.829.309-2.079.675-4.371.78-2.3.103-3 .127-8.8.127s-6.5-.024-8.8-.127c-2.292-.105-3.542-.471-4.371-.78a7.635 7.635 0 0 1-2.827-1.842 7.635 7.635 0 0 1-1.842-2.827c-.309-.829-.675-2.079-.78-4.371C5.024 30.5 5 29.8 5 24s.024-6.5.127-8.8c.105-2.292.471-3.542.78-4.371a7.635 7.635 0 0 1 1.842-2.827 7.635 7.635 0 0 1 2.827-1.842c.829-.309 2.079-.675 4.371-.78 2.3-.103 3-.127 8.8-.127zm0 7.2c-5.85 0-10.8 4.95-10.8 10.8s4.95 10.8 10.8 10.8 10.8-4.95 10.8-10.8-4.95-10.8-10.8-10.8zm0 18c-3.97 0-7.2-3.23-7.2-7.2s3.23-7.2 7.2-7.2 7.2 3.23 7.2 7.2-3.23 7.2-7.2 7.2zm12-19.1c-1.05 0-1.9-.85-1.9-1.9s.85-1.9 1.9-1.9 1.9.85 1.9 1.9-.85 1.9-1.9 1.9z"/>
</svg>
