<svg width="50" height="50" viewBox="0 0 48 48" xmlns="http://www.w3.org/2000/svg">
  <path d="M24 4C13.5066 4 5 12.5066 5 23C5 33.4934 13.5066 42 24 42C34.4934 42 43 33.4934 43 23C43 12.5066 34.4934 4 24 4ZM19.6917 30.0324L20.2883 26.7951L31.4027 18.6247C31.7261 18.3814 31.4722 18.2438 31.0887 18.4745L18.2036 26.2186L14.8215 25.0878C14.3511 24.9115 14.3511 24.4642 14.8215 24.288L32.2233 17.5073C32.6789 17.3347 33.0975 17.6231 32.9515 18.2718L30.2478 30.0294C30.127 30.5296 29.8184 30.6404 29.3892 30.4224L24.9289 27.8948L22.8193 29.8971C22.707 30.0086 22.6187 30.0974 22.4207 30.0974L22.7581 27.1924L28.3191 22.7461L19.6917 30.0324Z"/>
</svg>
